<svg viewBox="0 0 100 100" xmlns="http://www.w3.org/2000/svg">
    <!-- Grey Shadow Swoosh -->
    <path d="M 8 88 C 20 100, 60 100, 78 70" stroke="#EAEAEA" stroke-width="10" fill="none" />

    <!-- Orange Swoosh with Arrow -->
    <path d="M 10 82 C 25 95, 65 95, 80 65" stroke="#F59E0B" stroke-width="8" fill="none" />
    <path d="M 80 65 L 86 69 L 78 57 Z" fill="#F59E0B" />

    <!-- Buildings -->
    <g fill="black">
        <!-- Center Building (tallest part) -->
        <path d="M 48,25 L 52,25 L 52,80 L 48,80 Z" />
        <path d="M 48,25 L 50,20 L 52,25 Z" />

        <!-- Inner buildings -->
        <path d="M 42,35 L 46,35 L 46,80 L 42,80 Z" />
        <path d="M 54,35 L 58,35 L 58,80 L 54,80 Z" />

        <!-- Outer buildings -->
        <path d="M 36,45 L 40,45 L 40,80 L 36,80 Z" />
        <path d="M 60,45 L 64,45 L 64,80 L 60,80 Z" />
    </g>
</svg>